<svg width="44" height="44" viewBox="0 0 44 44" fill="none" xmlns="http://www.w3.org/2000/svg">
<path d="M36 6H8C6.4087 6 4.88258 6.63214 3.75736 7.75736C2.63214 8.88258 2 10.4087 2 12V32C2 33.5913 2.63214 35.1174 3.75736 36.2426C4.88258 37.3679 6.4087 38 8 38H36C37.5913 38 39.1174 37.3679 40.2426 36.2426C41.3679 35.1174 42 33.5913 42 32V12C42 10.4087 41.3679 8.88258 40.2426 7.75736C39.1174 6.63214 37.5913 6 36 6V6ZM35.18 10L23.42 21.76C23.2341 21.9475 23.0129 22.0962 22.7692 22.1978C22.5254 22.2993 22.264 22.3516 22 22.3516C21.736 22.3516 21.4746 22.2993 21.2308 22.1978C20.9871 22.0962 20.7659 21.9475 20.58 21.76L8.82 10H35.18ZM38 32C38 32.5304 37.7893 33.0391 37.4142 33.4142C37.0391 33.7893 36.5304 34 36 34H8C7.46957 34 6.96086 33.7893 6.58579 33.4142C6.21071 33.0391 6 32.5304 6 32V12.82L17.76 24.58C18.885 25.7036 20.41 26.3347 22 26.3347C23.59 26.3347 25.115 25.7036 26.24 24.58L38 12.82V32Z" fill="#1F79E9"/>
</svg>
