<svg width="44" height="44" viewBox="0 0 44 44" fill="none" xmlns="http://www.w3.org/2000/svg">
<path d="M32.68 8.92C32.2053 8.92 31.7413 9.06076 31.3466 9.32447C30.952 9.58819 30.6443 9.96302 30.4627 10.4016C30.281 10.8401 30.2335 11.3227 30.3261 11.7882C30.4187 12.2538 30.6473 12.6814 30.9829 13.0171C31.3186 13.3527 31.7462 13.5813 32.2118 13.6739C32.6773 13.7665 33.1599 13.719 33.5984 13.5373C34.037 13.3557 34.4118 13.048 34.6755 12.6534C34.9392 12.2587 35.08 11.7947 35.08 11.32C35.08 10.6835 34.8271 10.073 34.3771 9.62294C33.927 9.17286 33.3165 8.92 32.68 8.92V8.92ZM41.88 13.76C41.8411 12.1006 41.5303 10.4588 40.96 8.9C40.4515 7.56626 39.66 6.35856 38.64 5.36C37.6496 4.33485 36.4391 3.54835 35.1 3.06C33.5453 2.47232 31.9017 2.15442 30.24 2.12C28.12 2 27.44 2 22 2C16.56 2 15.88 2 13.76 2.12C12.0983 2.15442 10.4547 2.47232 8.9 3.06C7.56335 3.5533 6.35387 4.33912 5.36 5.36C4.33485 6.35036 3.54835 7.56088 3.06 8.9C2.47232 10.4547 2.15442 12.0983 2.12 13.76C2 15.88 2 16.56 2 22C2 27.44 2 28.12 2.12 30.24C2.15442 31.9017 2.47232 33.5453 3.06 35.1C3.54835 36.4391 4.33485 37.6496 5.36 38.64C6.35387 39.6609 7.56335 40.4467 8.9 40.94C10.4547 41.5277 12.0983 41.8456 13.76 41.88C15.88 42 16.56 42 22 42C27.44 42 28.12 42 30.24 41.88C31.9017 41.8456 33.5453 41.5277 35.1 40.94C36.4391 40.4516 37.6496 39.6651 38.64 38.64C39.6645 37.6452 40.4567 36.4364 40.96 35.1C41.5303 33.5412 41.8411 31.8994 41.88 30.24C41.88 28.12 42 27.44 42 22C42 16.56 42 15.88 41.88 13.76V13.76ZM38.28 30C38.2654 31.2695 38.0355 32.5274 37.6 33.72C37.2807 34.5904 36.7678 35.3768 36.1 36.02C35.4513 36.681 34.6665 37.1929 33.8 37.52C32.6074 37.9555 31.3495 38.1854 30.08 38.2C28.08 38.3 27.34 38.32 22.08 38.32C16.82 38.32 16.08 38.32 14.08 38.2C12.7618 38.2247 11.4492 38.0217 10.2 37.6C9.37156 37.2562 8.62271 36.7456 8 36.1C7.33618 35.4575 6.82969 34.6704 6.52 33.8C6.03171 32.5903 5.76089 31.3039 5.72 30C5.72 28 5.6 27.26 5.6 22C5.6 16.74 5.6 16 5.72 14C5.72896 12.7021 5.9659 11.4159 6.42 10.2C6.77209 9.35582 7.31253 8.60332 8 8C8.60763 7.31234 9.35858 6.76619 10.2 6.4C11.4191 5.96009 12.704 5.73016 14 5.72C16 5.72 16.74 5.6 22 5.6C27.26 5.6 28 5.6 30 5.72C31.2695 5.73456 32.5274 5.96449 33.72 6.4C34.6289 6.7373 35.4446 7.28569 36.1 8C36.7554 8.61436 37.2675 9.36547 37.6 10.2C38.0445 11.4179 38.2746 12.7036 38.28 14C38.38 16 38.4 16.74 38.4 22C38.4 27.26 38.38 28 38.28 30ZM22 11.74C19.9716 11.744 17.9899 12.3491 16.3053 13.4788C14.6207 14.6086 13.3088 16.2124 12.5353 18.0875C11.7618 19.9626 11.5614 22.0249 11.9596 24.0139C12.3577 26.0028 13.3365 27.8291 14.7722 29.262C16.2078 30.6948 18.036 31.67 20.0257 32.0643C22.0154 32.4586 24.0773 32.2542 25.9509 31.4771C27.8245 30.6999 29.4258 29.3849 30.5523 27.6981C31.6788 26.0113 32.28 24.0284 32.28 22C32.2826 20.6502 32.0184 19.3132 31.5025 18.0659C30.9866 16.8186 30.2291 15.6856 29.2737 14.7321C28.3184 13.7786 27.1839 13.0234 25.9356 12.5099C24.6873 11.9964 23.3498 11.7347 22 11.74V11.74ZM22 28.66C20.6828 28.66 19.3951 28.2694 18.2999 27.5376C17.2047 26.8058 16.351 25.7656 15.847 24.5487C15.3429 23.3317 15.211 21.9926 15.468 20.7007C15.7249 19.4088 16.3593 18.2221 17.2907 17.2907C18.2221 16.3593 19.4088 15.7249 20.7007 15.468C21.9926 15.211 23.3317 15.3429 24.5487 15.847C25.7656 16.351 26.8058 17.2047 27.5376 18.2999C28.2694 19.3951 28.66 20.6828 28.66 22C28.66 22.8746 28.4877 23.7406 28.153 24.5487C27.8183 25.3567 27.3278 26.0909 26.7093 26.7093C26.0909 27.3278 25.3567 27.8183 24.5487 28.153C23.7406 28.4877 22.8746 28.66 22 28.66V28.66Z" fill="#1F79E9"/>
</svg>
