<svg width="44" height="44" viewBox="0 0 44 44" fill="none" xmlns="http://www.w3.org/2000/svg">
<path d="M39.0423 2.00028H4.95775C4.5746 1.99499 4.19417 2.06477 3.83816 2.20564C3.48215 2.34651 3.15755 2.55571 2.88289 2.82129C2.60823 3.08687 2.3889 3.40363 2.23741 3.75347C2.08592 4.10332 2.00525 4.4794 2 4.86024V39.1398C2.00525 39.5206 2.08592 39.8967 2.23741 40.2465C2.3889 40.5964 2.60823 40.9131 2.88289 41.1787C3.15755 41.4443 3.48215 41.6535 3.83816 41.7944C4.19417 41.9352 4.5746 42.005 4.95775 41.9997H39.0423C39.4254 42.005 39.8058 41.9352 40.1618 41.7944C40.5178 41.6535 40.8424 41.4443 41.1171 41.1787C41.3918 40.9131 41.6111 40.5964 41.7626 40.2465C41.9141 39.8967 41.9948 39.5206 42 39.1398V4.86024C41.9948 4.4794 41.9141 4.10332 41.7626 3.75347C41.6111 3.40363 41.3918 3.08687 41.1171 2.82129C40.8424 2.55571 40.5178 2.34651 40.1618 2.20564C39.8058 2.06477 39.4254 1.99499 39.0423 2.00028V2.00028ZM14.1328 35.4798H8.09658V17.4801H14.1328V35.4798ZM11.1147 14.9601C10.2822 14.9601 9.48384 14.6314 8.8952 14.0463C8.30655 13.4612 7.97586 12.6676 7.97586 11.8401C7.97586 11.0127 8.30655 10.2191 8.8952 9.634C9.48384 9.04889 10.2822 8.72019 11.1147 8.72019C11.5567 8.67036 12.0044 8.71389 12.4283 8.84795C12.8523 8.98201 13.2429 9.20356 13.5748 9.4981C13.9066 9.79264 14.1721 10.1535 14.3539 10.5571C14.5356 10.9607 14.6296 11.3979 14.6296 11.8401C14.6296 12.2823 14.5356 12.7196 14.3539 13.1232C14.1721 13.5268 13.9066 13.8876 13.5748 14.1822C13.2429 14.4767 12.8523 14.6983 12.4283 14.8323C12.0044 14.9664 11.5567 15.0099 11.1147 14.9601V14.9601ZM35.9034 35.4798H29.8672V25.8199C29.8672 23.4 29.002 21.82 26.8089 21.82C26.1301 21.8249 25.4692 22.0366 24.9152 22.4263C24.3611 22.8161 23.9406 23.3653 23.7103 24C23.5528 24.47 23.4846 24.9651 23.5091 25.46V35.4598H17.4728V17.4601H23.5091V20C24.0574 19.0543 24.8549 18.2751 25.8158 17.7465C26.7766 17.2178 27.8643 16.9598 28.9618 17.0001C32.9859 17.0001 35.9034 19.58 35.9034 25.12V35.4798Z" fill="#1F79E9"/>
</svg>
