<svg width="296" height="159" viewBox="0 0 296 159" fill="none" xmlns="http://www.w3.org/2000/svg">
<path d="M294.954 158.68H0.283033C0.245909 158.681 0.209129 158.671 0.174795 158.652C0.140461 158.633 0.109249 158.605 0.0829544 158.569C0.0566597 158.534 0.0357979 158.492 0.0215624 158.445C0.00732681 158.399 0 158.349 0 158.299C0 158.249 0.00732681 158.199 0.0215624 158.153C0.0357979 158.106 0.0566597 158.064 0.0829544 158.029C0.109249 157.993 0.140461 157.965 0.174795 157.946C0.209129 157.927 0.245909 157.917 0.283033 157.917H294.954C294.991 157.917 295.028 157.927 295.062 157.946C295.097 157.965 295.128 157.993 295.154 158.029C295.18 158.064 295.201 158.106 295.216 158.153C295.23 158.199 295.237 158.249 295.237 158.299C295.237 158.349 295.23 158.399 295.216 158.445C295.201 158.492 295.18 158.534 295.154 158.569C295.128 158.605 295.097 158.633 295.062 158.652C295.028 158.671 294.991 158.681 294.954 158.68Z" fill="#3F3D56"/>
<path d="M130.323 57.2166H55.2359C54.4428 57.2175 53.6823 57.5331 53.1215 58.0939C52.5606 58.6548 52.2451 59.4152 52.2441 60.2084V75.1251C55.9896 75.2132 58.4208 78.3039 59.0099 82.0559V95.5786H59.2943C59.3395 95.5788 59.3829 95.5968 59.4148 95.6288C59.4468 95.6607 59.4648 95.7041 59.465 95.7493V102.945C59.4648 102.99 59.4468 103.033 59.4148 103.065C59.3829 103.097 59.3395 103.115 59.2943 103.116H59.0099V146.607C59.0099 147.563 59.0003 149.306 59.0003 149.306H130.323C131.116 149.305 131.876 148.99 132.437 148.429C132.998 147.868 133.314 147.108 133.315 146.314V60.2084C133.314 59.4152 132.998 58.6548 132.437 58.0939C131.876 57.533 131.116 57.2175 130.323 57.2166Z" fill="#125CB8"/>
<path d="M270.135 8.40112V90.0233H138.811V54.0868C138.81 52.455 138.161 50.8906 137.007 49.7367C135.853 48.5829 134.289 47.934 132.657 47.9324H108.028V8.40112H270.135Z" fill="#125CB8"/>
<path d="M278.244 101.53H138.958V100.961H277.675V4.83477C277.674 3.70376 277.224 2.61943 276.424 1.81968C275.624 1.01994 274.54 0.570076 273.409 0.568794H103.054C101.923 0.570077 100.839 1.01994 100.039 1.81968C99.2397 2.61943 98.7898 3.70376 98.7885 4.83477V47.5639H98.2197V4.83477C98.2212 3.55295 98.731 2.32405 99.6374 1.41767C100.544 0.511284 101.773 0.00144261 103.054 0H273.409C274.691 0.00144058 275.92 0.511278 276.826 1.41766C277.732 2.32404 278.242 3.55295 278.244 4.83477V101.53Z" fill="#3F3D56"/>
<path d="M265.046 118.878H138.958V118.31H265.046C268.394 118.306 271.604 116.974 273.971 114.607C276.339 112.239 277.671 109.029 277.674 105.681V101.53H138.958V100.961H278.243V105.681C278.239 109.18 276.847 112.534 274.373 115.009C271.899 117.483 268.545 118.874 265.046 118.878Z" fill="#3F3D56"/>
<path d="M227.626 146.749C220.597 140 215.973 131.194 214.487 118.878H162.683C162.156 130.4 157.561 139.041 149.273 146.719L148.397 146.75C156.948 139 161.658 130.296 162.126 118.583L162.137 118.31H214.993L215.022 118.561C216.482 131.085 221.202 139.948 228.405 146.704L227.626 146.749Z" fill="#3F3D56"/>
<path d="M132.52 158.516H52.719V157.947H132.52C134.152 157.945 135.716 157.296 136.87 156.142C138.024 154.988 138.673 153.424 138.674 151.793V54.2173C138.673 52.5857 138.024 51.0214 136.87 49.8677C135.716 48.714 134.152 48.065 132.52 48.0632H52.719C51.0874 48.065 49.5231 48.714 48.3694 49.8677C47.2157 51.0214 46.5667 52.5857 46.5649 54.2173V75.2747H45.9961V54.2173C45.9981 52.4349 46.7071 50.7261 47.9674 49.4657C49.2278 48.2054 50.9366 47.4964 52.719 47.4944H132.52C134.303 47.4964 136.012 48.2054 137.272 49.4657C138.532 50.7261 139.241 52.4349 139.243 54.2173V151.793C139.241 153.575 138.532 155.284 137.272 156.544C136.012 157.805 134.303 158.514 132.52 158.516Z" fill="#3F3D56"/>
<path d="M92.6199 54.6905C92.2385 54.6905 91.8656 54.5774 91.5485 54.3655C91.2314 54.1536 90.9842 53.8524 90.8382 53.5C90.6922 53.1476 90.6541 52.7599 90.7285 52.3858C90.8029 52.0117 90.9865 51.6681 91.2562 51.3984C91.5259 51.1287 91.8696 50.945 92.2437 50.8706C92.6178 50.7961 93.0055 50.8343 93.3579 50.9803C93.7103 51.1262 94.0115 51.3734 94.2234 51.6905C94.4353 52.0077 94.5484 52.3805 94.5484 52.762C94.5479 53.2733 94.3445 53.7635 93.9829 54.125C93.6214 54.4866 93.1312 54.6899 92.6199 54.6905ZM92.6199 51.2793C92.3267 51.2793 92.04 51.3662 91.7961 51.5292C91.5523 51.6921 91.3623 51.9237 91.25 52.1946C91.1378 52.4655 91.1085 52.7637 91.1657 53.0513C91.2229 53.3389 91.3641 53.6031 91.5715 53.8105C91.7789 54.0179 92.0431 54.1591 92.3307 54.2163C92.6183 54.2735 92.9164 54.2441 93.1874 54.1319C93.4583 54.0196 93.6899 53.8296 93.8528 53.5858C94.0157 53.3419 94.1027 53.0552 94.1027 52.762C94.1022 52.3689 93.9458 51.992 93.6679 51.714C93.3899 51.4361 93.013 51.2797 92.6199 51.2793Z" fill="#3F3D56"/>
<path d="M92.62 156.336C92.1333 156.336 91.6575 156.191 91.2528 155.921C90.8482 155.65 90.5328 155.266 90.3465 154.816C90.1602 154.367 90.1115 153.872 90.2065 153.395C90.3014 152.917 90.5358 152.479 90.8799 152.135C91.224 151.791 91.6625 151.556 92.1399 151.461C92.6172 151.366 93.112 151.415 93.5616 151.601C94.0113 151.787 94.3956 152.103 94.666 152.508C94.9364 152.912 95.0807 153.388 95.0807 153.875C95.08 154.527 94.8205 155.153 94.3592 155.614C93.8979 156.075 93.2724 156.335 92.62 156.336ZM92.62 151.983C92.2458 151.983 91.88 152.094 91.5688 152.302C91.2577 152.51 91.0152 152.805 90.872 153.151C90.7288 153.496 90.6913 153.877 90.7643 154.244C90.8373 154.611 91.0175 154.948 91.2822 155.213C91.5468 155.477 91.8839 155.657 92.2509 155.73C92.6179 155.803 92.9983 155.766 93.344 155.623C93.6898 155.479 93.9852 155.237 94.1931 154.926C94.401 154.615 94.512 154.249 94.512 153.875C94.5114 153.373 94.3118 152.892 93.9572 152.537C93.6025 152.183 93.1216 151.983 92.62 151.983Z" fill="#3F3D56"/>
<path d="M51.9174 158.68H25.5009C23.5122 158.678 21.6056 157.887 20.1994 156.481C18.7932 155.075 18.0022 153.168 18 151.179V82.7756C18.0023 80.787 18.7932 78.8804 20.1995 77.4742C21.6057 76.068 23.5122 75.277 25.5009 75.2748H51.9174C53.9061 75.277 55.8126 76.068 57.2188 77.4742C58.625 78.8804 59.416 80.787 59.4183 82.7756V95.0168C59.553 95.0731 59.6681 95.1679 59.749 95.2894C59.83 95.4108 59.8733 95.5535 59.8735 95.6995L59.8734 103.665C59.8733 103.811 59.83 103.953 59.749 104.075C59.668 104.196 59.553 104.291 59.4183 104.347V151.18C59.416 153.168 58.625 155.075 57.2188 156.481C55.8126 157.887 53.906 158.678 51.9174 158.68ZM25.5009 75.8436C23.663 75.8457 21.901 76.5767 20.6015 77.8762C19.3019 79.1758 18.5709 80.9378 18.5688 82.7756V151.179C18.5709 153.017 19.3019 154.779 20.6014 156.079C21.901 157.379 23.663 158.11 25.5009 158.112H51.9174C53.7552 158.11 55.5172 157.379 56.8168 156.079C58.1164 154.779 58.8474 153.017 58.8495 151.18V103.835H59.1339C59.1792 103.835 59.2225 103.817 59.2546 103.785C59.2866 103.753 59.3046 103.71 59.3046 103.665L59.3047 95.6995C59.3046 95.6542 59.2866 95.6108 59.2546 95.5788C59.2226 95.5468 59.1792 95.5288 59.1339 95.5287H58.8495V82.7756C58.8474 80.9378 58.1164 79.1758 56.8168 77.8762C55.5172 76.5767 53.7553 75.8457 51.9174 75.8436H25.5009Z" fill="#3F3D56"/>
<path d="M52.2083 77.4365H48.7601C48.9186 77.8253 48.9792 78.2471 48.9363 78.6648C48.8935 79.0825 48.7486 79.4832 48.5144 79.8317C48.2802 80.1802 47.9639 80.4657 47.5933 80.6632C47.2228 80.8606 46.8093 80.9639 46.3895 80.9639H31.2558C30.836 80.9639 30.4225 80.8606 30.052 80.6632C29.6814 80.4657 29.3651 80.1802 29.1309 79.8317C28.8967 79.4832 28.7518 79.0825 28.709 78.6648C28.6662 78.2471 28.7267 77.8253 28.8853 77.4365H25.6646C24.2353 77.4365 22.8645 78.0043 21.8539 79.015C20.8432 80.0257 20.2754 81.3964 20.2754 82.8257V151.129C20.2754 152.559 20.8432 153.929 21.8539 154.94C22.8645 155.951 24.2353 156.518 25.6646 156.518H52.2083C53.6376 156.518 55.0084 155.951 56.0191 154.94C57.0297 153.929 57.5975 152.559 57.5975 151.129V82.8257C57.5975 81.3964 57.0297 80.0257 56.019 79.015C55.0084 78.0043 53.6376 77.4365 52.2083 77.4365Z" fill="#125CB8"/>
<path d="M227.801 158.41H149.023C148.238 158.41 147.461 158.256 146.736 157.956C146.011 157.656 145.352 157.217 144.797 156.662C144.242 156.107 143.801 155.449 143.501 154.724C143.201 153.999 143.046 153.222 143.046 152.437C143.046 151.653 143.201 150.876 143.501 150.151C143.801 149.426 144.242 148.767 144.797 148.212C145.352 147.658 146.011 147.218 146.736 146.918C147.461 146.618 148.238 146.464 149.023 146.465H227.801C229.384 146.466 230.902 147.096 232.021 148.216C233.14 149.336 233.769 150.854 233.769 152.437C233.769 154.02 233.14 155.539 232.021 156.659C230.902 157.779 229.384 158.408 227.801 158.41ZM149.023 147.034C147.59 147.034 146.216 147.603 145.202 148.616C144.189 149.63 143.619 151.004 143.619 152.437C143.619 153.87 144.189 155.245 145.202 156.258C146.216 157.271 147.59 157.841 149.023 157.841H227.801C229.234 157.841 230.609 157.271 231.622 156.258C232.636 155.245 233.205 153.87 233.205 152.437C233.205 151.004 232.636 149.63 231.622 148.616C230.609 147.603 229.234 147.034 227.801 147.034H149.023Z" fill="#3F3D56"/>
<path d="M150.968 157.928H226.308C229.282 157.928 229.287 153.306 226.308 153.306H150.968C147.994 153.306 147.989 157.928 150.968 157.928Z" fill="#E6E6E6"/>
</svg>
