<svg width="44" height="44" viewBox="0 0 44 44" fill="none" xmlns="http://www.w3.org/2000/svg">
<path d="M29 14H15C14.2044 14 13.4413 14.3161 12.8787 14.8787C12.3161 15.4413 12 16.2044 12 17V27C12 27.7956 12.3161 28.5587 12.8787 29.1213C13.4413 29.6839 14.2044 30 15 30H29C29.7957 30 30.5587 29.6839 31.1213 29.1213C31.6839 28.5587 32 27.7956 32 27V17C32 16.2044 31.6839 15.4413 31.1213 14.8787C30.5587 14.3161 29.7957 14 29 14V14ZM28.59 16L22.71 21.88C22.617 21.9737 22.5064 22.0481 22.3846 22.0989C22.2627 22.1497 22.132 22.1758 22 22.1758C21.868 22.1758 21.7373 22.1497 21.6154 22.0989C21.4936 22.0481 21.383 21.9737 21.29 21.88L15.41 16H28.59ZM30 27C30 27.2652 29.8946 27.5196 29.7071 27.7071C29.5196 27.8946 29.2652 28 29 28H15C14.7348 28 14.4804 27.8946 14.2929 27.7071C14.1054 27.5196 14 27.2652 14 27V17.41L19.88 23.29C20.4425 23.8518 21.205 24.1674 22 24.1674C22.795 24.1674 23.5575 23.8518 24.12 23.29L30 17.41V27Z" fill="#579AEF"/>
</svg>
