<svg width="44" height="44" viewBox="0 0 44 44" fill="none" xmlns="http://www.w3.org/2000/svg">
<path d="M30.4097 12.0001H13.47C13.2796 11.9975 13.0905 12.0324 12.9136 12.1028C12.7366 12.1733 12.5753 12.2779 12.4388 12.4106C12.3023 12.5434 12.1933 12.7018 12.118 12.8767C12.0427 13.0517 12.0026 13.2397 12 13.4301V30.5699C12.0026 30.7603 12.0427 30.9483 12.118 31.1233C12.1933 31.2982 12.3023 31.4566 12.4388 31.5894C12.5753 31.7221 12.7366 31.8267 12.9136 31.8972C13.0905 31.9676 13.2796 32.0025 13.47 31.9999H30.4097C30.6002 32.0025 30.7892 31.9676 30.9662 31.8972C31.1431 31.8267 31.3044 31.7221 31.4409 31.5894C31.5774 31.4566 31.6864 31.2982 31.7617 31.1233C31.837 30.9483 31.8771 30.7603 31.8797 30.5699V13.4301C31.8771 13.2397 31.837 13.0517 31.7617 12.8767C31.6864 12.7018 31.5774 12.5434 31.4409 12.4106C31.3044 12.2779 31.1431 12.1733 30.9662 12.1028C30.7892 12.0324 30.6002 11.9975 30.4097 12.0001V12.0001ZM18.0299 28.7399H15.03V19.74H18.0299V28.7399ZM16.5299 18.48C16.1162 18.48 15.7194 18.3157 15.4269 18.0231C15.1343 17.7306 14.97 17.3338 14.97 16.9201C14.97 16.5063 15.1343 16.1096 15.4269 15.817C15.7194 15.5244 16.1162 15.3601 16.5299 15.3601C16.7496 15.3352 16.9721 15.3569 17.1828 15.424C17.3935 15.491 17.5877 15.6018 17.7526 15.749C17.9175 15.8963 18.0494 16.0768 18.1398 16.2786C18.2301 16.4804 18.2768 16.699 18.2768 16.9201C18.2768 17.1412 18.2301 17.3598 18.1398 17.5616C18.0494 17.7634 17.9175 17.9438 17.7526 18.0911C17.5877 18.2384 17.3935 18.3491 17.1828 18.4162C16.9721 18.4832 16.7496 18.505 16.5299 18.48V18.48ZM28.8498 28.7399H25.8498V23.91C25.8498 22.7 25.4198 21.91 24.3298 21.91C23.9925 21.9125 23.664 22.0183 23.3887 22.2132C23.1133 22.4081 22.9043 22.6827 22.7899 23C22.7116 23.235 22.6777 23.4826 22.6899 23.73V28.7299H19.6899V19.73H22.6899V21C22.9624 20.5271 23.3587 20.1375 23.8363 19.8732C24.3138 19.6089 24.8544 19.4799 25.3998 19.5C27.3998 19.5 28.8498 20.79 28.8498 23.56V28.7399Z" fill="#579AEF"/>
</svg>
