<svg width="267" height="189" viewBox="0 0 267 189" fill="none" xmlns="http://www.w3.org/2000/svg">
<path d="M254.286 0.17334H12.565C10.5593 0.175533 8.63642 0.973266 7.21817 2.39151C5.79993 3.80975 5.00219 5.73267 5 7.73836V135.263C5.00219 137.269 5.79993 139.192 7.21817 140.61C8.63642 142.028 10.5593 142.826 12.565 142.828H254.286C256.291 142.826 258.214 142.028 259.632 140.61C261.051 139.192 261.848 137.269 261.851 135.263V7.73836C261.848 5.73267 261.051 3.80975 259.632 2.39151C258.214 0.973266 256.291 0.175533 254.286 0.17334ZM261.13 135.263C261.128 137.078 260.407 138.818 259.124 140.101C257.84 141.384 256.1 142.106 254.286 142.108H12.565C10.7502 142.106 9.01026 141.384 7.72701 140.101C6.44377 138.818 5.72212 137.078 5.72048 135.263V7.73836C5.72212 5.92358 6.44377 4.1836 7.72701 2.90035C9.01026 1.61711 10.7502 0.895461 12.565 0.893818H254.286C256.1 0.895461 257.84 1.61711 259.124 2.90035C260.407 4.1836 261.128 5.92358 261.13 7.73836V135.263Z" fill="#3F3D56"/>
<path d="M242.398 20.8401H24.453C24.3575 20.8401 24.2658 20.8022 24.1983 20.7346C24.1307 20.667 24.0928 20.5754 24.0928 20.4799C24.0928 20.3843 24.1307 20.2927 24.1983 20.2251C24.2658 20.1576 24.3575 20.1196 24.453 20.1196H242.398C242.493 20.1196 242.585 20.1576 242.652 20.2251C242.72 20.2927 242.758 20.3843 242.758 20.4799C242.758 20.5754 242.72 20.667 242.652 20.7346C242.585 20.8022 242.493 20.8401 242.398 20.8401Z" fill="#3F3D56"/>
<path d="M86.0546 127.338C85.959 127.338 85.8674 127.3 85.7999 127.232C85.7323 127.165 85.6943 127.073 85.6943 126.978V8.45887C85.6943 8.36333 85.7323 8.2717 85.7999 8.20414C85.8674 8.13659 85.959 8.09863 86.0546 8.09863C86.1501 8.09863 86.2417 8.13659 86.3093 8.20414C86.3769 8.2717 86.4148 8.36333 86.4148 8.45887V126.978C86.4148 127.073 86.3769 127.165 86.3093 127.232C86.2417 127.3 86.1501 127.338 86.0546 127.338Z" fill="#3F3D56"/>
<path d="M140.45 127.338C140.355 127.338 140.263 127.3 140.195 127.232C140.128 127.165 140.09 127.073 140.09 126.978V8.45887C140.09 8.36333 140.128 8.2717 140.195 8.20414C140.263 8.13659 140.355 8.09863 140.45 8.09863C140.546 8.09863 140.637 8.13659 140.705 8.20414C140.772 8.2717 140.81 8.36333 140.81 8.45887V126.978C140.81 127.073 140.772 127.165 140.705 127.232C140.637 127.3 140.546 127.338 140.45 127.338Z" fill="#3F3D56"/>
<path d="M194.847 127.338C194.751 127.338 194.659 127.3 194.592 127.232C194.524 127.165 194.486 127.073 194.486 126.978V8.45887C194.486 8.36333 194.524 8.2717 194.592 8.20414C194.659 8.13659 194.751 8.09863 194.847 8.09863C194.942 8.09863 195.034 8.13659 195.101 8.20414C195.169 8.2717 195.207 8.36333 195.207 8.45887V126.978C195.207 127.073 195.169 127.165 195.101 127.232C195.034 127.3 194.942 127.338 194.847 127.338Z" fill="#3F3D56"/>
<path d="M51.0801 58.0232H37.917C37.4872 58.0227 37.0751 57.8518 36.7712 57.5479C36.4673 57.244 36.2964 56.8319 36.2959 56.4021V40.8688C36.2964 40.439 36.4673 40.0269 36.7712 39.723C37.0751 39.4191 37.4872 39.2482 37.917 39.2477H51.0801C51.5099 39.2482 51.9219 39.4191 52.2259 39.723C52.5298 40.0269 52.7007 40.439 52.7012 40.8688V56.4021C52.7007 56.8319 52.5298 57.244 52.2259 57.5479C51.9219 57.8518 51.5099 58.0227 51.0801 58.0232Z" fill="#125CB8"/>
<path d="M69.8125 102.333H56.6494C56.2196 102.332 55.8076 102.161 55.5037 101.857C55.1997 101.553 55.0288 101.141 55.0283 100.712V85.1782C55.0288 84.7484 55.1997 84.3364 55.5037 84.0324C55.8076 83.7285 56.2196 83.5576 56.6494 83.5571H69.8125C70.2423 83.5576 70.6544 83.7285 70.9583 84.0324C71.2622 84.3364 71.4331 84.7484 71.4336 85.1782V100.712C71.4331 101.141 71.2622 101.553 70.9583 101.857C70.6544 102.161 70.2423 102.332 69.8125 102.333Z" fill="#125CB8"/>
<path d="M112.321 67.3895H99.1582C98.7284 67.389 98.3163 67.2181 98.0124 66.9142C97.7085 66.6103 97.5376 66.1982 97.5371 65.7684V50.2351C97.5376 49.8053 97.7085 49.3933 98.0124 49.0893C98.3163 48.7854 98.7284 48.6145 99.1582 48.614H112.321C112.751 48.6145 113.163 48.7854 113.467 49.0893C113.771 49.3933 113.942 49.8053 113.942 50.2351V65.7685C113.942 66.1982 113.771 66.6103 113.467 66.9142C113.163 67.2181 112.751 67.389 112.321 67.3895Z" fill="#125CB8"/>
<path d="M167.438 50.4581H154.274C153.845 50.4577 153.433 50.2867 153.129 49.9828C152.825 49.6789 152.654 49.2669 152.653 48.8371V33.3037C152.654 32.8739 152.825 32.4619 153.129 32.1579C153.433 31.854 153.845 31.6831 154.274 31.6826H167.438C167.867 31.6831 168.279 31.854 168.583 32.1579C168.887 32.4619 169.058 32.8739 169.059 33.3037V48.8371C169.058 49.2669 168.887 49.6789 168.583 49.9828C168.279 50.2867 167.867 50.4577 167.438 50.4581Z" fill="#125CB8"/>
<path d="M218.231 50.4581H205.068C204.639 50.4577 204.226 50.2867 203.923 49.9828C203.619 49.6789 203.448 49.2669 203.447 48.8371V33.3037C203.448 32.8739 203.619 32.4619 203.923 32.1579C204.226 31.854 204.639 31.6831 205.068 31.6826H218.231C218.661 31.6831 219.073 31.854 219.377 32.1579C219.681 32.4619 219.852 32.8739 219.853 33.3037V48.8371C219.852 49.2669 219.681 49.6789 219.377 49.9828C219.073 50.2867 218.661 50.4577 218.231 50.4581Z" fill="#125CB8"/>
<path d="M241.647 54.7811H228.484C228.055 54.7806 227.643 54.6097 227.339 54.3058C227.035 54.0019 226.864 53.5898 226.863 53.1601V37.6267C226.864 37.1969 227.035 36.7849 227.339 36.4809C227.643 36.177 228.055 36.0061 228.484 36.0056H241.647C242.077 36.0061 242.489 36.177 242.793 36.4809C243.097 36.7849 243.268 37.1969 243.269 37.6267V53.1601C243.268 53.5898 243.097 54.0019 242.793 54.3058C242.489 54.6097 242.077 54.7806 241.647 54.7811Z" fill="#E6E6E6"/>
<path d="M231.2 82.5194H218.037C217.607 82.5189 217.195 82.348 216.891 82.0441C216.587 81.7402 216.416 81.3281 216.416 80.8983V65.365C216.416 64.9352 216.587 64.5231 216.891 64.2192C217.195 63.9153 217.607 63.7444 218.037 63.7439H231.2C231.63 63.7444 232.042 63.9153 232.346 64.2192C232.65 64.5231 232.821 64.9352 232.821 65.365V80.8984C232.821 81.3281 232.65 81.7402 232.346 82.0441C232.042 82.348 231.63 82.5189 231.2 82.5194Z" fill="#E6E6E6"/>
<path d="M186.53 76.7558H173.367C172.937 76.7553 172.525 76.5843 172.221 76.2804C171.918 75.9765 171.747 75.5645 171.746 75.1347V59.6013C171.747 59.1715 171.918 58.7595 172.221 58.4556C172.525 58.1517 172.937 57.9807 173.367 57.9802H186.53C186.96 57.9807 187.372 58.1517 187.676 58.4556C187.98 58.7595 188.151 59.1715 188.151 59.6013V75.1347C188.151 75.5645 187.98 75.9765 187.676 76.2804C187.372 76.5843 186.96 76.7553 186.53 76.7558Z" fill="#FF6584"/>
<path d="M160.953 82.5194H147.79C147.36 82.5189 146.948 82.348 146.644 82.0441C146.34 81.7402 146.169 81.3281 146.169 80.8983V65.365C146.169 64.9352 146.34 64.5231 146.644 64.2192C146.948 63.9153 147.36 63.7444 147.79 63.7439H160.953C161.383 63.7444 161.795 63.9153 162.099 64.2192C162.403 64.5231 162.574 64.9352 162.574 65.365V80.8984C162.574 81.3281 162.403 81.7402 162.099 82.0441C161.795 82.348 161.383 82.5189 160.953 82.5194Z" fill="#E6E6E6"/>
<path d="M105.837 107.016H92.6738C92.244 107.015 91.832 106.844 91.5281 106.54C91.2241 106.237 91.0532 105.824 91.0527 105.395V89.8613C91.0532 89.4315 91.2241 89.0195 91.5281 88.7156C91.832 88.4117 92.244 88.2407 92.6738 88.2402H105.837C106.267 88.2407 106.679 88.4117 106.983 88.7156C107.287 89.0195 107.458 89.4315 107.458 89.8613V105.395C107.458 105.824 107.287 106.237 106.983 106.54C106.679 106.844 106.267 107.015 105.837 107.016Z" fill="#E6E6E6"/>
<path d="M39.1924 86.4821H26.0293C25.5995 86.4816 25.1874 86.3106 24.8835 86.0067C24.5796 85.7028 24.4087 85.2908 24.4082 84.861V69.3276C24.4087 68.8978 24.5796 68.4858 24.8835 68.1819C25.1874 67.878 25.5995 67.707 26.0293 67.7065H39.1924C39.6222 67.707 40.0343 67.878 40.3382 68.1819C40.6421 68.4858 40.813 68.8978 40.8135 69.3276V84.861C40.813 85.2908 40.6421 85.7028 40.3382 86.0067C40.0343 86.3106 39.6222 86.4816 39.1924 86.4821Z" fill="#FF6584"/>
<path d="M76.2969 58.0232H63.1338C62.704 58.0227 62.2919 57.8518 61.988 57.5479C61.6841 57.244 61.5132 56.8319 61.5127 56.4021V40.8688C61.5132 40.439 61.6841 40.0269 61.988 39.723C62.2919 39.4191 62.704 39.2482 63.1338 39.2477H76.2969C76.7267 39.2482 77.1388 39.4191 77.4427 39.723C77.7466 40.0269 77.9175 40.439 77.918 40.8688V56.4021C77.9175 56.8319 77.7466 57.244 77.4427 57.5479C77.1388 57.8518 76.7267 58.0227 76.2969 58.0232Z" fill="#E6E6E6"/>
<path d="M65.5205 14.9432H44.9869C44.6047 14.9432 44.2382 14.7914 43.9679 14.5211C43.6977 14.2509 43.5459 13.8844 43.5459 13.5022C43.5459 13.1201 43.6977 12.7536 43.9679 12.4833C44.2382 12.2131 44.6047 12.0613 44.9869 12.0613H65.5205C65.9027 12.0613 66.2692 12.2131 66.5394 12.4833C66.8096 12.7536 66.9614 13.1201 66.9614 13.5022C66.9614 13.8844 66.8096 14.2509 66.5394 14.5211C66.2692 14.7914 65.9027 14.9432 65.5205 14.9432Z" fill="#CCCCCC"/>
<path d="M123.52 14.9432H102.986C102.604 14.9432 102.237 14.7914 101.967 14.5211C101.697 14.2509 101.545 13.8844 101.545 13.5022C101.545 13.1201 101.697 12.7536 101.967 12.4833C102.237 12.2131 102.604 12.0613 102.986 12.0613H123.52C123.902 12.0613 124.268 12.2131 124.538 12.4833C124.809 12.7536 124.96 13.1201 124.96 13.5022C124.96 13.8844 124.809 14.2509 124.538 14.5211C124.268 14.7914 123.902 14.9432 123.52 14.9432Z" fill="#CCCCCC"/>
<path d="M177.915 14.9432H157.381C156.999 14.9432 156.633 14.7914 156.362 14.5211C156.092 14.2509 155.94 13.8844 155.94 13.5022C155.94 13.1201 156.092 12.7536 156.362 12.4833C156.633 12.2131 156.999 12.0613 157.381 12.0613H177.915C178.297 12.0613 178.664 12.2131 178.934 12.4833C179.204 12.7536 179.356 13.1201 179.356 13.5022C179.356 13.8844 179.204 14.2509 178.934 14.5211C178.664 14.7914 178.297 14.9432 177.915 14.9432Z" fill="#CCCCCC"/>
<path d="M228.709 14.9432H208.175C207.793 14.9432 207.427 14.7914 207.156 14.5211C206.886 14.2509 206.734 13.8844 206.734 13.5022C206.734 13.1201 206.886 12.7536 207.156 12.4833C207.427 12.2131 207.793 12.0613 208.175 12.0613H228.709C229.091 12.0613 229.458 12.2131 229.728 12.4833C229.998 12.7536 230.15 13.1201 230.15 13.5022C230.15 13.8844 229.998 14.2509 229.728 14.5211C229.458 14.7914 229.091 14.9432 228.709 14.9432Z" fill="#CCCCCC"/>
<path d="M266.393 188.582H0.430175C0.373742 188.582 0.317834 188.571 0.26565 188.55C0.213466 188.528 0.166037 188.497 0.126075 188.457C0.0861131 188.417 0.0544057 188.37 0.032772 188.318C0.0111383 188.265 0 188.209 0 188.153C0 188.097 0.0111383 188.041 0.032772 187.989C0.0544057 187.937 0.0861131 187.889 0.126075 187.849C0.166037 187.809 0.213466 187.778 0.26565 187.756C0.317834 187.735 0.373742 187.724 0.430175 187.724H266.393C266.449 187.724 266.505 187.735 266.557 187.756C266.609 187.778 266.657 187.809 266.697 187.849C266.737 187.889 266.768 187.937 266.79 187.989C266.812 188.041 266.823 188.097 266.823 188.153C266.823 188.209 266.812 188.265 266.79 188.318C266.768 188.37 266.737 188.417 266.697 188.457C266.657 188.497 266.609 188.528 266.557 188.55C266.505 188.571 266.449 188.582 266.393 188.582Z" fill="#3F3D56"/>
</svg>
