<svg width="223" height="185" viewBox="0 0 223 185" fill="none" xmlns="http://www.w3.org/2000/svg">
<path d="M215.582 23.0228H0.961914V160.63H215.582V23.0228Z" fill="#E6E6E6"/>
<path d="M209.445 40.2822H7.09863V152.489H209.445V40.2822Z" fill="white"/>
<path d="M215.491 22.901H0.870117V32.0291H215.491V22.901Z" fill="#125CB8"/>
<path d="M7.64598 29.2596C8.5793 29.2596 9.33591 28.5022 9.33591 27.5678C9.33591 26.6334 8.5793 25.876 7.64598 25.876C6.71266 25.876 5.95605 26.6334 5.95605 27.5678C5.95605 28.5022 6.71266 29.2596 7.64598 29.2596Z" fill="white"/>
<path d="M14.06 29.2596C14.9934 29.2596 15.75 28.5022 15.75 27.5678C15.75 26.6334 14.9934 25.876 14.06 25.876C13.1267 25.876 12.3701 26.6334 12.3701 27.5678C12.3701 28.5022 13.1267 29.2596 14.06 29.2596Z" fill="white"/>
<path d="M20.4751 29.2596C21.4084 29.2596 22.165 28.5022 22.165 27.5678C22.165 26.6334 21.4084 25.876 20.4751 25.876C19.5418 25.876 18.7852 26.6334 18.7852 27.5678C18.7852 28.5022 19.5418 29.2596 20.4751 29.2596Z" fill="white"/>
<path d="M77.4779 51.9246H25.4844V140.847H77.4779V51.9246Z" fill="#E6E6E6"/>
<path d="M129.781 51.9246H86.4531V76.4014H129.781V51.9246Z" fill="#125CB8"/>
<path d="M129.781 83.2177H86.4531V109.553H129.781V83.2177Z" fill="#E6E6E6"/>
<path d="M129.781 116.37H86.4531V140.847H129.781V116.37Z" fill="#E6E6E6"/>
<path d="M191.06 51.9246H139.066V90.6763H191.06V51.9246Z" fill="#E6E6E6"/>
<path d="M191.06 102.095H139.066V140.847H191.06V102.095Z" fill="#125CB8"/>
<path d="M108.563 62.989L107.885 62.8084L122.696 7.02783H208.609V7.73062H123.236L108.563 62.989Z" fill="#3F3D56"/>
<path d="M215.629 14.7584C214.171 14.7584 212.746 14.3256 211.534 13.5148C210.322 12.7039 209.377 11.5515 208.819 10.2031C208.261 8.85473 208.115 7.37102 208.399 5.93959C208.684 4.50817 209.386 3.19332 210.417 2.16132C211.448 1.12932 212.761 0.42652 214.191 0.141792C215.621 -0.142936 217.103 0.00319828 218.449 0.561712C219.796 1.12023 220.947 2.06604 221.757 3.27954C222.567 4.49304 223 5.91973 223 7.3792C222.997 9.33561 222.22 11.2112 220.838 12.5946C219.456 13.978 217.583 14.7562 215.629 14.7584ZM215.629 0.702786C214.31 0.702785 213.02 1.09435 211.924 1.82796C210.827 2.56158 209.972 3.60429 209.467 4.82425C208.963 6.04421 208.831 7.38661 209.088 8.68171C209.345 9.97681 209.98 11.1664 210.913 12.1001C211.846 13.0339 213.034 13.6697 214.328 13.9273C215.621 14.185 216.962 14.0527 218.181 13.5474C219.399 13.0421 220.441 12.1864 221.174 11.0884C221.906 9.99049 222.298 8.69967 222.298 7.3792C222.296 5.60912 221.592 3.91212 220.342 2.66049C219.092 1.40885 217.397 0.704796 215.629 0.702786Z" fill="#3F3D56"/>
<path d="M215.629 10.1904C217.18 10.1904 218.437 8.93178 218.437 7.37924C218.437 5.8267 217.18 4.56812 215.629 4.56812C214.078 4.56812 212.821 5.8267 212.821 7.37924C212.821 8.93178 214.078 10.1904 215.629 10.1904Z" fill="#125CB8"/>
<path d="M151.315 177.101H65.4023V176.398H150.776L165.448 121.139L166.127 121.32L151.315 177.101Z" fill="#3F3D56"/>
<path d="M58.3826 184.129C56.9248 184.129 55.4997 183.696 54.2876 182.885C53.0754 182.074 52.1307 180.922 51.5728 179.573C51.0149 178.225 50.8689 176.741 51.1534 175.31C51.4378 173.878 52.1398 172.564 53.1706 171.532C54.2014 170.5 55.5148 169.797 56.9446 169.512C58.3744 169.227 59.8565 169.373 61.2033 169.932C62.5502 170.49 63.7014 171.436 64.5113 172.65C65.3212 173.863 65.7535 175.29 65.7535 176.749C65.7513 178.706 64.974 180.581 63.5922 181.965C62.2104 183.348 60.3368 184.126 58.3826 184.129ZM58.3826 170.073C57.0636 170.073 55.7743 170.465 54.6776 171.198C53.5809 171.932 52.7261 172.975 52.2213 174.194C51.7166 175.414 51.5845 176.757 51.8419 178.052C52.0992 179.347 52.7343 180.537 53.667 181.47C54.5996 182.404 55.7879 183.04 57.0816 183.298C58.3752 183.555 59.7161 183.423 60.9347 182.918C62.1533 182.412 63.1948 181.557 63.9276 180.459C64.6604 179.361 65.0515 178.07 65.0515 176.749C65.0495 174.979 64.3463 173.282 63.096 172.031C61.8458 170.779 60.1507 170.075 58.3826 170.073Z" fill="#3F3D56"/>
<path d="M58.3832 179.56C59.9339 179.56 61.1911 178.302 61.1911 176.749C61.1911 175.197 59.9339 173.938 58.3832 173.938C56.8324 173.938 55.5752 175.197 55.5752 176.749C55.5752 178.302 56.8324 179.56 58.3832 179.56Z" fill="#125CB8"/>
</svg>
